<?xml version="1.0" encoding="utf-8"?>
<svg viewBox="0 0 500 500" xmlns="http://www.w3.org/2000/svg">
  <g style="" transform="matrix(1.071942, 0, 0, 1.071942, 1.835104, 30.483427)">
    <path xmlns="http://www.w3.org/2000/svg" d="M 106.909 108.923 C 93.513 122.319 85.385 140.039 83.629 158.623 C 65.934 156.191 48.056 147.884 33.558 133.384 C 2.037 101.864 -1.61 54.425 25.407 27.42 C 52.402 0.403 99.839 4.05 131.36 35.571 C 145.859 50.07 154.167 67.957 156.598 85.654 C 138.025 87.387 120.305 95.527 106.909 108.923 Z M 277.592 279.606 C 284.12 273.076 293.486 270.217 302.56 271.951 L 335.161 304.574 C 344.167 313.579 344.167 328.169 335.161 337.175 C 326.155 346.181 311.566 346.181 302.56 337.175 L 269.937 304.574 C 268.203 295.502 271.062 286.135 277.592 279.606 Z M 172.111 108.923 C 154.167 106.357 136.043 112.402 123.209 125.224 C 110.377 138.057 104.342 156.181 106.909 174.137 L 258.318 295.253 C 259.219 286.383 262.957 277.94 269.441 271.455 C 275.925 264.971 284.368 261.234 293.239 260.333 L 172.111 108.923 Z" style="stroke: rgb(0, 0, 0); fill: rgb(255, 54, 54); stroke-width: 9.32886px; stroke-linejoin: round;"/>
    <path xmlns="http://www.w3.org/2000/svg" d="M 218.755 301.518 C 205.359 288.122 197.231 270.402 195.475 251.818 C 177.78 254.25 159.902 262.557 145.404 277.057 C 113.883 308.577 110.236 356.016 137.253 383.021 C 164.248 410.038 211.685 406.391 243.206 374.87 C 257.705 360.371 266.013 342.484 268.444 324.787 C 249.871 323.054 232.151 314.914 218.755 301.518 Z M 389.438 130.835 C 395.966 137.365 405.332 140.224 414.406 138.49 L 447.007 105.867 C 456.013 96.862 456.013 82.272 447.007 73.266 C 438.001 64.26 423.412 64.26 414.406 73.266 L 381.783 105.867 C 380.049 114.939 382.908 124.306 389.438 130.835 Z M 283.957 301.518 C 266.013 304.084 247.889 298.039 235.055 285.217 C 222.223 272.384 216.188 254.26 218.755 236.304 L 370.164 115.188 C 371.065 124.058 374.803 132.501 381.287 138.986 C 387.771 145.47 396.214 149.207 405.085 150.108 L 283.957 301.518 Z" style="fill: rgb(4, 153, 255); stroke: rgb(0, 0, 0); stroke-width: 9.32886px; stroke-linejoin: round;" transform="matrix(-1, 0, 0, -1, 572.91568, 467.631317)"/>
  </g>
</svg>