<?xml version="1.0" encoding="UTF-8"?>
<svg width="125.33" height="131.46" version="1.1" xmlns="http://www.w3.org/2000/svg" xmlns:cc="http://creativecommons.org/ns#" xmlns:dc="http://purl.org/dc/elements/1.1/" xmlns:rdf="http://www.w3.org/1999/02/22-rdf-syntax-ns#">
    <path stroke="black" fill="white" d="m12.726 58.556c0.31803-28.513 15.157-37.437 23.237-37.437 11.285 0 15.946 8.6151 16.707 12.429 0.76116 3.8111 5.0324 6.8595 6.4047 0.60798 1.3734-6.2515 14.649-25.315 30.966-25.315 14.943 0 20.119 15.41 19.671 28.518-1.2228 35.683-47.19 64.158-53.239 82.143-5.3875-10.891-44.126-26.634-43.746-60.946zm82.652-58.556c-13.42 0-29.29 9.9111-38.896 26.382-2.592-5.9483-11.827-12.43-22.805-12.43-8.8462 0-33.676 11.056-33.676 46.74 0 46.052 46.593 55.508 56.011 69.825 0.64721 0.98433 2.7319 1.728 3.5276-0.62388 7.5157-22.18 65.791-47.242 65.791-92.379-5.3e-4 -25.314-16.536-37.513-29.955-37.513z" stroke-width=".53006"/>
</svg>